<svg width="208" height="42" viewBox="0 0 208 42" fill="none" xmlns="http://www.w3.org/2000/svg">
    <g clipPath="url(#clip0_2413_13145)">
        <path
            d="M29.3819 12.8067C34.3244 12.8067 38.3442 16.8266 38.3442 21.769C38.3442 26.7115 34.3244 30.7313 29.3819 30.7313H14.602C9.65958 30.7313 5.6397 26.7115 5.6397 21.769C5.6397 16.8266 9.65958 12.8067 14.602 12.8067H29.3819ZM29.3819 7.16699H14.602C6.53854 7.16699 0 13.7055 0 21.769C0 29.8325 6.53854 36.371 14.602 36.371H29.3819C37.4454 36.371 43.9839 29.8325 43.9839 21.769C43.9839 13.7055 37.4454 7.16699 29.3819 7.16699Z"
            fill="#FB5F66" />
        <path
            d="M17.5452 21.7691C17.5452 20.2117 16.2827 18.9492 14.7254 18.9492C13.168 18.9492 11.9055 20.2117 11.9055 21.7691C11.9055 23.3264 13.168 24.5889 14.7254 24.5889C16.2827 24.5889 17.5452 23.3264 17.5452 21.7691Z"
            fill="#444444" />
        <path
            d="M24.8118 21.7691C24.8118 20.2117 23.5493 18.9492 21.992 18.9492C20.4346 18.9492 19.1721 20.2117 19.1721 21.7691C19.1721 23.3264 20.4346 24.5889 21.992 24.5889C23.5493 24.5889 24.8118 23.3264 24.8118 21.7691Z"
            fill="#444444" />
        <path
            d="M32.0809 21.7691C32.0809 20.2117 30.8184 18.9492 29.261 18.9492C27.7037 18.9492 26.4412 20.2117 26.4412 21.7691C26.4412 23.3264 27.7037 24.5889 29.261 24.5889C30.8184 24.5889 32.0809 23.3264 32.0809 21.7691Z"
            fill="#444444" />
        <path d="M28.234 41.7403L23.422 33.4041H33.0484L28.234 41.7403Z" fill="#FB5F66" />
        <path
            d="M12.6336 12.9442C11.7158 12.9442 10.8146 12.496 10.2715 11.6706L5.48558 4.36606C4.6318 3.06404 4.99703 1.31617 6.29904 0.462384C7.60106 -0.391397 9.34894 -0.0261681 10.2027 1.27585L14.9886 8.58042C15.8424 9.88243 15.4772 11.6303 14.1752 12.4841C13.6985 12.7971 13.1625 12.9466 12.6336 12.9466V12.9442Z"
            fill="#FB5F66" />
        <path
            d="M57.986 28.6017C56.6769 28.6017 55.5693 28.3836 54.6563 27.9448C53.7456 27.5061 53.0388 26.8657 52.5384 26.0238C52.038 25.1819 51.7581 24.155 51.7036 22.9454C51.6894 22.3739 51.6823 21.762 51.6823 21.1098C51.6823 20.4576 51.6894 19.8291 51.7036 19.2315C51.7581 18.0362 52.0404 17.0164 52.5479 16.1745C53.0554 15.3326 53.7693 14.6899 54.6871 14.244C55.6049 13.7981 56.7053 13.5752 57.9836 13.5752C58.9157 13.5752 59.7647 13.6938 60.5307 13.9309C61.2968 14.1681 61.9561 14.5096 62.5134 14.9531C63.0707 15.399 63.5024 15.9207 63.8083 16.5184C64.1142 17.116 64.2803 17.7848 64.3087 18.5224C64.3087 18.6481 64.2637 18.7524 64.1735 18.8354C64.0834 18.9184 63.9743 18.9611 63.851 18.9611H61.4723C61.3063 18.9611 61.1734 18.9184 61.0762 18.8354C60.979 18.7524 60.9031 18.6125 60.8462 18.418C60.6375 17.5975 60.2888 17.033 59.8027 16.7271C59.3165 16.4211 58.7093 16.267 57.986 16.267C57.1227 16.267 56.4421 16.5041 55.9417 16.9761C55.4413 17.4504 55.1685 18.2354 55.1282 19.3335C55.0855 20.4742 55.0855 21.6434 55.1282 22.8387C55.1709 23.9391 55.4413 24.7242 55.9417 25.1961C56.4421 25.6704 57.1251 25.9052 57.986 25.9052C58.7093 25.9052 59.3188 25.7487 59.8121 25.4356C60.3054 25.1226 60.6493 24.5629 60.8462 23.7565C60.9007 23.5478 60.979 23.4055 61.0762 23.3296C61.1734 23.2538 61.3063 23.2158 61.4723 23.2158H63.851C63.9767 23.2158 64.0834 23.2585 64.1735 23.3415C64.2637 23.4245 64.3087 23.5289 64.3087 23.6546C64.2803 24.3921 64.1142 25.0609 63.8083 25.6586C63.5024 26.2562 63.0707 26.778 62.5134 27.2238C61.9561 27.6697 61.2968 28.0088 60.5307 28.246C59.7647 28.4832 58.9157 28.6017 57.9836 28.6017H57.986Z"
            fill="white" />
        <path
            d="M66.6258 28.393C66.4716 28.393 66.3483 28.3432 66.251 28.246C66.1538 28.1488 66.104 28.0231 66.104 27.8713V14.0969C66.104 13.9452 66.1538 13.8195 66.251 13.7222C66.3483 13.625 66.474 13.5752 66.6258 13.5752H68.8788C69.0187 13.5752 69.1349 13.625 69.2345 13.7222C69.3318 13.8195 69.3816 13.9452 69.3816 14.0969V18.7927C69.7563 18.3469 70.2164 17.9935 70.7595 17.7279C71.3026 17.4646 71.9548 17.3318 72.7208 17.3318C73.5414 17.3318 74.2695 17.5168 74.9027 17.8844C75.5359 18.252 76.0339 18.788 76.3944 19.4924C76.7549 20.1944 76.9375 21.0481 76.9375 22.049V27.8713C76.9375 28.0254 76.8877 28.1488 76.7905 28.246C76.6933 28.3432 76.5676 28.393 76.4158 28.393H74.1414C74.0015 28.393 73.8829 28.3432 73.7857 28.246C73.6884 28.1488 73.6386 28.0231 73.6386 27.8713V22.1747C73.6386 21.4371 73.4584 20.8632 73.0955 20.4529C72.7327 20.0426 72.218 19.8363 71.5516 19.8363C70.8852 19.8363 70.3729 20.0426 69.9768 20.4529C69.5808 20.8632 69.3816 21.4371 69.3816 22.1747V27.8713C69.3816 28.0254 69.3318 28.1488 69.2345 28.246C69.1373 28.3432 69.0187 28.393 68.8788 28.393H66.6258Z"
            fill="white" />
        <path
            d="M82.3187 28.6018C81.5811 28.6018 80.9195 28.4595 80.336 28.1749C79.7526 27.8903 79.2854 27.5037 78.9368 27.0175C78.5882 26.5313 78.415 25.9882 78.415 25.3906C78.415 24.4016 78.8158 23.6237 79.6151 23.0522C80.4143 22.483 81.4697 22.0917 82.7764 21.883L85.5109 21.4869V21.1122C85.5109 20.5691 85.3852 20.1517 85.1362 19.86C84.8848 19.5683 84.4484 19.4212 83.8223 19.4212C83.3622 19.4212 82.9946 19.5114 82.7171 19.6916C82.4397 19.8719 82.2238 20.109 82.0697 20.4007C81.9582 20.581 81.7993 20.6711 81.5906 20.6711H79.608C79.4538 20.6711 79.3376 20.626 79.2522 20.5359C79.1692 20.4458 79.1336 20.3367 79.1479 20.2134C79.1479 19.9762 79.238 19.6987 79.4182 19.3786C79.5985 19.0584 79.8783 18.743 80.253 18.4299C80.6278 18.1169 81.1092 17.856 81.6926 17.6473C82.276 17.4386 82.9922 17.3342 83.8413 17.3342C84.6903 17.3342 85.4682 17.4386 86.0943 17.6473C86.7204 17.856 87.2208 18.1477 87.5979 18.5248C87.975 18.9019 88.2525 19.3359 88.4327 19.8292C88.613 20.3225 88.7031 20.8561 88.7031 21.4253V27.8737C88.7031 28.0278 88.6533 28.1512 88.5561 28.2484C88.4588 28.3456 88.3331 28.3954 88.1813 28.3954H86.137C85.9971 28.3954 85.8785 28.3456 85.7813 28.2484C85.684 28.1512 85.6342 28.0255 85.6342 27.8737V27.1005C85.454 27.3662 85.2097 27.6128 84.9038 27.8405C84.5978 28.0705 84.2326 28.2555 83.8081 28.3931C83.3836 28.533 82.8855 28.6018 82.3163 28.6018H82.3187ZM83.1535 26.4317C83.6136 26.4317 84.0239 26.3345 84.3844 26.14C84.7449 25.9456 85.0318 25.6467 85.2405 25.2436C85.4492 24.8404 85.5536 24.3329 85.5536 23.721V23.3652L83.6136 23.6783C82.8618 23.804 82.3116 23.9913 81.9653 24.2427C81.6167 24.4941 81.4436 24.8001 81.4436 25.1606C81.4436 25.4262 81.5242 25.6538 81.6831 25.8483C81.842 26.0428 82.0555 26.1898 82.3187 26.2871C82.582 26.3843 82.8618 26.4341 83.1535 26.4341V26.4317Z"
            fill="white" />
        <path
            d="M96.0527 28.3931C95.1895 28.3931 94.4519 28.2508 93.84 27.9662C93.2281 27.6816 92.7657 27.2381 92.4526 26.6405C92.1396 26.0428 91.983 25.291 91.983 24.3875V20.0047H90.3561C90.2019 20.0047 90.0786 19.9549 89.9814 19.8577C89.8842 19.7604 89.8344 19.6347 89.8344 19.483V18.0647C89.8344 17.9106 89.8842 17.7873 89.9814 17.69C90.0786 17.5928 90.2043 17.543 90.3561 17.543H91.983V14.0994C91.983 13.9476 92.0352 13.8219 92.1396 13.7247C92.2439 13.6274 92.3649 13.5776 92.5048 13.5776H94.5491C94.7033 13.5776 94.8266 13.6274 94.9238 13.7247C95.0211 13.8219 95.0709 13.9476 95.0709 14.0994V17.543H97.6796C97.8196 17.543 97.9358 17.5928 98.0354 17.69C98.1326 17.7873 98.1824 17.9129 98.1824 18.0647V19.483C98.1824 19.6371 98.1326 19.7604 98.0354 19.8577C97.9382 19.9549 97.8196 20.0047 97.6796 20.0047H95.0709V24.1361C95.0709 24.6649 95.1657 25.08 95.3531 25.3788C95.5405 25.6776 95.8701 25.827 96.3444 25.827H97.867C98.0069 25.827 98.1231 25.8768 98.2227 25.9741C98.32 26.0713 98.3698 26.1899 98.3698 26.3298V27.8737C98.3698 28.0279 98.32 28.1512 98.2227 28.2484C98.1255 28.3457 98.0069 28.3955 97.867 28.3955H96.0503L96.0527 28.3931Z"
            fill="white" />
        <path
            d="M106.175 28.6017C105.383 28.6017 104.721 28.4666 104.192 28.1938C103.663 27.9235 103.232 27.5772 102.897 27.1598V27.8689C102.897 28.0231 102.847 28.1464 102.75 28.2436C102.653 28.3409 102.527 28.3907 102.376 28.3907H100.393C100.239 28.3907 100.115 28.3409 100.018 28.2436C99.9209 28.1464 99.8711 28.0207 99.8711 27.8689V14.0969C99.8711 13.9452 99.9209 13.8195 100.018 13.7222C100.115 13.625 100.241 13.5752 100.393 13.5752H102.542C102.681 13.5752 102.798 13.625 102.897 13.7222C102.995 13.8195 103.044 13.9452 103.044 14.0969V18.6457C103.393 18.2568 103.825 17.939 104.339 17.6971C104.854 17.4528 105.466 17.3318 106.175 17.3318C106.884 17.3318 107.527 17.4528 108.063 17.6971C108.599 17.9413 109.054 18.2805 109.429 18.7192C109.803 19.158 110.093 19.675 110.294 20.275C110.496 20.8726 110.603 21.5343 110.617 22.2577C110.631 22.5091 110.638 22.7415 110.638 22.9573C110.638 23.1731 110.631 23.4126 110.617 23.6783C110.588 24.4158 110.475 25.087 110.273 25.6918C110.071 26.2965 109.787 26.8183 109.417 27.257C109.047 27.6958 108.596 28.0302 108.06 28.2579C107.524 28.4879 106.896 28.6017 106.172 28.6017H106.175ZM105.236 26.0973C105.765 26.0973 106.182 25.9835 106.488 25.7534C106.794 25.5234 107.012 25.2222 107.145 24.8451C107.278 24.4704 107.356 24.0601 107.384 23.6142C107.413 23.1826 107.413 22.751 107.384 22.3193C107.356 21.8735 107.275 21.4632 107.145 21.0885C107.012 20.7138 106.794 20.4102 106.488 20.1801C106.182 19.9501 105.765 19.8363 105.236 19.8363C104.735 19.8363 104.327 19.9477 104.014 20.1707C103.701 20.3936 103.464 20.6758 103.305 21.0149C103.144 21.3565 103.059 21.7217 103.044 22.1106C103.03 22.362 103.023 22.6182 103.023 22.8838C103.023 23.1494 103.03 23.4126 103.044 23.6759C103.073 24.0933 103.156 24.4822 103.296 24.8451C103.436 25.208 103.663 25.5068 103.983 25.7416C104.304 25.9787 104.721 26.0973 105.236 26.0973Z"
            fill="white" />
        <path
            d="M117.506 28.6017C116.351 28.6017 115.384 28.4096 114.606 28.0278C113.826 27.6459 113.233 27.0981 112.822 26.389C112.412 25.6799 112.187 24.8522 112.144 23.9059C112.13 23.6284 112.123 23.3106 112.123 22.9573C112.123 22.6039 112.13 22.2932 112.144 22.0276C112.187 21.0671 112.422 20.237 112.853 19.5326C113.285 18.8306 113.89 18.2875 114.67 17.9057C115.448 17.5239 116.394 17.3318 117.509 17.3318C118.623 17.3318 119.546 17.5239 120.326 17.9057C121.104 18.2875 121.711 18.8306 122.143 19.5326C122.575 20.2346 122.812 21.0671 122.852 22.0276C122.88 22.2932 122.895 22.6015 122.895 22.9573C122.895 23.313 122.88 23.6284 122.852 23.9059C122.809 24.8522 122.584 25.6799 122.174 26.389C121.763 27.0981 121.168 27.6436 120.39 28.0278C119.61 28.4096 118.652 28.6017 117.511 28.6017H117.506ZM117.506 26.306C118.187 26.306 118.702 26.0949 119.05 25.6704C119.399 25.2459 119.586 24.6245 119.615 23.8015C119.629 23.5928 119.636 23.3154 119.636 22.9667C119.636 22.6181 119.629 22.3406 119.615 22.1319C119.586 21.3256 119.399 20.7066 119.05 20.275C118.702 19.8433 118.187 19.6275 117.506 19.6275C116.826 19.6275 116.306 19.8433 115.951 20.275C115.595 20.7066 115.405 21.3256 115.377 22.1319C115.362 22.3406 115.355 22.6181 115.355 22.9667C115.355 23.3154 115.362 23.5928 115.377 23.8015C115.405 24.6221 115.595 25.2459 115.951 25.6704C116.306 26.0949 116.823 26.306 117.506 26.306Z"
            fill="white" />
        <path
            d="M129.924 28.3931C129.061 28.3931 128.323 28.2508 127.711 27.9662C127.1 27.6816 126.637 27.2381 126.324 26.6405C126.011 26.0428 125.854 25.291 125.854 24.3875V20.0047H124.228C124.073 20.0047 123.95 19.9549 123.853 19.8577C123.756 19.7604 123.706 19.6347 123.706 19.483V18.0647C123.706 17.9106 123.756 17.7873 123.853 17.69C123.95 17.5928 124.076 17.543 124.228 17.543H125.854V14.0994C125.854 13.9476 125.907 13.8219 126.011 13.7247C126.115 13.6274 126.236 13.5776 126.376 13.5776H128.421C128.575 13.5776 128.698 13.6274 128.795 13.7247C128.893 13.8219 128.942 13.9476 128.942 14.0994V17.543H131.551C131.691 17.543 131.807 17.5928 131.907 17.69C132.004 17.7873 132.054 17.9129 132.054 18.0647V19.483C132.054 19.6371 132.004 19.7604 131.907 19.8577C131.81 19.9549 131.691 20.0047 131.551 20.0047H128.942V24.1361C128.942 24.6649 129.037 25.08 129.225 25.3788C129.412 25.6776 129.742 25.827 130.216 25.827H131.738C131.878 25.827 131.995 25.8768 132.094 25.9741C132.191 26.0713 132.241 26.1899 132.241 26.3298V27.8737C132.241 28.0279 132.191 28.1512 132.094 28.2484C131.997 28.3457 131.878 28.3955 131.738 28.3955H129.922L129.924 28.3931Z"
            fill="white" />
        <path
            d="M138.794 28.3931C138.64 28.3931 138.516 28.3433 138.419 28.246C138.322 28.1488 138.272 28.0231 138.272 27.8713V14.3057C138.272 14.1539 138.32 14.0282 138.419 13.931C138.516 13.8337 138.642 13.7839 138.794 13.7839H144.993C146.148 13.7839 147.095 13.9499 147.832 14.2843C148.57 14.6187 149.115 15.0907 149.471 15.7026C149.827 16.3144 150.002 17.0307 150.002 17.8513C150.002 18.3659 149.907 18.8189 149.72 19.2078C149.533 19.5968 149.303 19.9169 149.032 20.1683C148.762 20.4197 148.501 20.6071 148.25 20.7328C148.793 20.9842 149.269 21.3968 149.68 21.9755C150.09 22.5518 150.296 23.2372 150.296 24.0317C150.296 24.9092 150.102 25.6728 149.713 26.3274C149.324 26.982 148.745 27.4895 147.982 27.85C147.216 28.2128 146.284 28.3931 145.185 28.3931H138.799H138.794ZM141.59 19.6893H144.595C145.249 19.6893 145.74 19.5256 146.065 19.1983C146.39 18.871 146.556 18.4513 146.556 17.9366C146.556 17.422 146.393 17.007 146.065 16.6939C145.738 16.3809 145.247 16.2243 144.595 16.2243H141.59V19.6893ZM141.59 25.9503H144.782C145.463 25.9503 145.978 25.7582 146.326 25.3764C146.675 24.9946 146.848 24.5392 146.848 24.0103C146.848 23.4815 146.67 23.0119 146.317 22.6443C145.961 22.2767 145.451 22.0917 144.782 22.0917H141.59V25.9527V25.9503Z"
            fill="white" />
        <path
            d="M156.221 28.6017C155.414 28.6017 154.7 28.4167 154.081 28.0491C153.462 27.6815 152.981 27.1456 152.642 26.4412C152.3 25.7392 152.13 24.8854 152.13 23.8846V18.0623C152.13 17.9081 152.179 17.7848 152.277 17.6876C152.374 17.5903 152.492 17.5405 152.632 17.5405H154.845C154.999 17.5405 155.123 17.5903 155.22 17.6876C155.317 17.7848 155.367 17.9105 155.367 18.0623V23.7589C155.367 25.317 156.048 26.0973 157.411 26.0973C158.066 26.0973 158.583 25.891 158.967 25.4807C159.349 25.0704 159.541 24.4965 159.541 23.7589V18.0623C159.541 17.9081 159.588 17.7848 159.688 17.6876C159.785 17.5903 159.911 17.5405 160.063 17.5405H162.275C162.415 17.5405 162.532 17.5903 162.631 17.6876C162.728 17.7848 162.778 17.9105 162.778 18.0623V27.8713C162.778 28.0254 162.728 28.1488 162.631 28.246C162.534 28.3432 162.415 28.393 162.275 28.393H160.231C160.077 28.393 159.954 28.3432 159.856 28.246C159.759 28.1488 159.709 28.0231 159.709 27.8713V27.0578C159.346 27.5582 158.882 27.9424 158.31 28.2057C157.739 28.4689 157.044 28.6017 156.223 28.6017H156.221Z"
            fill="white" />
        <path
            d="M165.529 15.8709C165.389 15.8709 165.271 15.8211 165.173 15.7239C165.076 15.6267 165.026 15.501 165.026 15.3492V13.6796C165.026 13.5278 165.076 13.3974 165.173 13.293C165.271 13.1887 165.389 13.1365 165.529 13.1365H167.721C167.875 13.1365 168.003 13.1887 168.107 13.293C168.211 13.3974 168.264 13.5254 168.264 13.6796V15.3492C168.264 15.5033 168.211 15.6267 168.107 15.7239C168.003 15.8211 167.875 15.8709 167.721 15.8709H165.529ZM165.591 28.3931C165.451 28.3931 165.332 28.3433 165.235 28.246C165.138 28.1488 165.088 28.0231 165.088 27.8713V18.0623C165.088 17.9082 165.138 17.7848 165.235 17.6876C165.332 17.5904 165.451 17.5406 165.591 17.5406H167.678C167.832 17.5406 167.955 17.5904 168.053 17.6876C168.15 17.7848 168.2 17.9105 168.2 18.0623V27.8713C168.2 28.0255 168.15 28.1488 168.053 28.246C167.955 28.3433 167.83 28.3931 167.678 28.3931H165.591Z"
            fill="white" />
        <path
            d="M171.017 28.393C170.863 28.393 170.74 28.3432 170.642 28.246C170.545 28.1488 170.495 28.0231 170.495 27.8713V14.0969C170.495 13.9452 170.545 13.8195 170.642 13.7222C170.74 13.625 170.865 13.5752 171.017 13.5752H173.104C173.244 13.5752 173.36 13.625 173.46 13.7222C173.557 13.8195 173.607 13.9452 173.607 14.0969V27.8713C173.607 28.0254 173.557 28.1488 173.46 28.246C173.363 28.3432 173.244 28.393 173.104 28.393H171.017Z"
            fill="white" />
        <path
            d="M179.949 28.6017C179.254 28.6017 178.635 28.4879 178.092 28.2579C177.549 28.0278 177.091 27.6934 176.714 27.257C176.337 26.8207 176.052 26.2965 175.858 25.6918C175.663 25.087 175.545 24.4158 175.502 23.6783C175.488 23.415 175.48 23.1731 175.48 22.9573C175.48 22.7415 175.488 22.5091 175.502 22.2577C175.53 21.5343 175.644 20.8727 175.846 20.275C176.047 19.6774 176.332 19.158 176.702 18.7192C177.069 18.2805 177.53 17.939 178.08 17.6971C178.63 17.4528 179.251 17.3318 179.949 17.3318C180.646 17.3318 181.291 17.4528 181.806 17.6971C182.32 17.9413 182.745 18.2568 183.079 18.6457V14.0969C183.079 13.9452 183.129 13.8195 183.226 13.7222C183.323 13.625 183.449 13.5752 183.601 13.5752H185.75C185.889 13.5752 186.006 13.625 186.105 13.7222C186.203 13.8195 186.252 13.9452 186.252 14.0969V27.8713C186.252 28.0254 186.203 28.1488 186.105 28.246C186.008 28.3432 185.889 28.393 185.75 28.393H183.746C183.606 28.393 183.487 28.3432 183.39 28.246C183.293 28.1488 183.243 28.0231 183.243 27.8713V27.1622C182.894 27.5796 182.455 27.9235 181.929 28.1962C181.4 28.4666 180.738 28.6041 179.946 28.6041L179.949 28.6017ZM180.909 26.0973C181.424 26.0973 181.839 25.9787 182.152 25.7416C182.465 25.5044 182.695 25.2056 182.84 24.8451C182.987 24.4822 183.065 24.0933 183.079 23.6759C183.108 23.4126 183.122 23.147 183.122 22.8838C183.122 22.6205 183.108 22.362 183.079 22.1106C183.065 21.7217 182.982 21.3565 182.828 21.0149C182.674 20.6734 182.441 20.3936 182.128 20.1707C181.815 19.9477 181.407 19.8363 180.907 19.8363C180.378 19.8363 179.96 19.9501 179.655 20.1801C179.349 20.4102 179.13 20.7114 178.998 21.0885C178.865 21.4632 178.784 21.8735 178.758 22.3193C178.715 22.751 178.715 23.1826 178.758 23.6142C178.787 24.0601 178.865 24.4704 178.998 24.8451C179.13 25.2198 179.349 25.5234 179.655 25.7534C179.96 25.9835 180.378 26.0973 180.907 26.0973H180.909Z"
            fill="white" />
        <path
            d="M193.431 28.6017C191.83 28.6017 190.562 28.1558 189.622 27.2665C188.683 26.3771 188.185 25.0822 188.131 23.3841V22.4877C188.185 21.4157 188.429 20.4955 188.861 19.7224C189.293 18.9492 189.897 18.3587 190.678 17.9484C191.456 17.5381 192.369 17.3318 193.412 17.3318C194.581 17.3318 195.559 17.5713 196.344 18.0528C197.129 18.5318 197.721 19.1864 198.117 20.0141C198.514 20.8418 198.713 21.7928 198.713 22.8624V23.3415C198.713 23.4814 198.661 23.6 198.556 23.6972C198.452 23.7944 198.331 23.8442 198.191 23.8442H191.365V24.0103C191.38 24.4561 191.465 24.8617 191.626 25.2316C191.785 25.5992 192.015 25.8957 192.314 26.1186C192.613 26.3415 192.971 26.453 193.388 26.453C193.737 26.453 194.022 26.4032 194.245 26.306C194.468 26.2087 194.653 26.0902 194.797 25.9502C194.944 25.8103 195.051 25.6941 195.12 25.5945C195.245 25.4546 195.345 25.3692 195.423 25.3336C195.499 25.298 195.623 25.2814 195.789 25.2814H197.959C198.099 25.2814 198.212 25.3194 198.302 25.3953C198.393 25.4712 198.431 25.5803 198.416 25.7178C198.402 25.9407 198.288 26.2159 198.072 26.5431C197.857 26.8704 197.541 27.1906 197.124 27.5036C196.706 27.8167 196.187 28.0776 195.568 28.2863C194.949 28.495 194.235 28.5993 193.429 28.5993L193.431 28.6017ZM191.365 21.9446H195.457V21.9019C195.457 21.4015 195.376 20.9675 195.217 20.5975C195.058 20.2299 194.823 19.9406 194.517 19.7319C194.211 19.5232 193.841 19.4188 193.412 19.4188C192.983 19.4188 192.613 19.5232 192.307 19.7319C192.001 19.9406 191.769 20.2299 191.607 20.5975C191.448 20.9675 191.368 21.4015 191.368 21.9019V21.9446H191.365Z"
            fill="white" />
        <path
            d="M200.987 28.393C200.847 28.393 200.729 28.3432 200.631 28.246C200.534 28.1488 200.484 28.0231 200.484 27.8713V18.0623C200.484 17.9224 200.534 17.8014 200.631 17.6971C200.729 17.5927 200.847 17.5405 200.987 17.5405H203.032C203.171 17.5405 203.292 17.5927 203.397 17.6971C203.501 17.8014 203.553 17.9224 203.553 18.0623V18.8971C203.902 18.4655 204.329 18.1311 204.836 17.8963C205.344 17.6591 205.932 17.5405 206.601 17.5405H207.497C207.637 17.5405 207.753 17.5903 207.853 17.6876C207.95 17.7848 208 17.9105 208 18.0623V19.8576C208 20.0117 207.95 20.1351 207.853 20.2323C207.756 20.3295 207.637 20.3793 207.497 20.3793H205.662C205.05 20.3793 204.568 20.5501 204.222 20.8916C203.873 21.2331 203.7 21.7169 203.7 22.343V27.8736C203.7 28.0278 203.65 28.1511 203.553 28.2484C203.456 28.3456 203.33 28.3954 203.179 28.3954H200.987V28.393Z"
            fill="white" />
    </g>
    <defs>
        <clipPath id="clip0_2413_13145">
            <rect width="208" height="41.7404" fill="white" />
        </clipPath>
    </defs>
</svg>




